:FULLY-SPECIFIED
:FORCE-ALL-JOINTS-BE-3DOF
:DEGREES
204
root 4.87732 15.059 -25.4293 7.07764 -1.63086 5.70066
lfemur 7.76387 -1.25168 0.614201
ltibia 5.81595 0 0
lfoot -35.9075 -12.7284 0
ltoes 46.8864 0 0
rfemur -31.1628 -19.4668 -8.84644
rtibia 50.5057 0 0
rfoot -26.478 17.8656 0
rtoes 60.1521 0 0
lowerback -3.53686 -1.59159 -0.388914
upperback -0.572166 -2.01307 -7.7479
thorax 1.12633 -1.01101 -7.97579
lowerneck -11.6857 0.40345 6.8474
upperneck 3.78247 -0.661226 2.53792
head 3.29318 -0.100511 -0.41573
lclavicle 9.93923e-17 -1.27222e-14 0
lhumerus -58.9313 -46.763 115.811
lradius 54.0188 0 0
lwrist 26.8256 0 0
lhand 39.9977 30.8286 0
lfingers 7.12502 0 0
lthumb 62.3933 41.8241 0
rclavicle 9.93923e-17 -1.27222e-14 0
rhumerus -3.26601 -12.1528 -11.388
rradius 53.9006 0 0
rwrist -23.879 0 0
rhand -21.1893 -49.6806 0
rfingers 7.12502 0 0
rthumb 5.19161 -439.597 0
205
root 4.85591 15.0465 -25.4443 7.15069 -1.67343 5.6407
lfemur 7.62232 -1.53968 0.691721
ltibia 5.94251 0 0
lfoot -36.1768 -12.2427 0
ltoes 46.9543 0 0
rfemur -31.5379 -19.765 -8.64333
rtibia 50.8524 0 0
rfoot -26.4659 18.1566 0
rtoes 60.2416 0 0
lowerback -3.30635 -1.54265 -0.432036
upperback -0.602321 -1.9597 -7.69015
thorax 0.975887 -0.986768 -7.87576
lowerneck -11.5445 0.445354 6.94587
upperneck 3.7535 -0.603254 2.47325
head 3.25733 -0.0750716 -0.4505
lclavicle 9.70739e-17 -1.0404e-14 0
lhumerus -59.1365 -46.8203 116.088
lradius 54.0928 0 0
lwrist 26.6523 0 0
lhand 39.77 30.5872 0
lfingers 7.12502 0 0
lthumb 62.2107 41.8696 0
rclavicle 9.70739e-17 -1.0404e-14 0
rhumerus -3.16401 -16.6077 -11.6649
rradius 53.1456 0 0
rwrist -23.3775 0 0
rhand -27.5422 -53.0334 0
rfingers 7.12502 0 0
rthumb -0.847358 -459.651 0
206
root 4.83322 15.0377 -25.4595 7.23671 -1.59975 5.58515
lfemur 7.40338 -2.07887 0.804925
ltibia 6.03816 0 0
lfoot -36.318 -11.8371 0
ltoes 47.233 0 0
rfemur -31.8278 -20.0463 -8.44132
rtibia 51.1558 0 0
rfoot -26.5385 18.3372 0
rtoes 60.2954 0 0
lowerback -3.03236 -1.51085 -0.494019
upperback -0.641528 -1.93192 -7.62058
thorax 0.787991 -0.975977 -7.75162
lowerneck -11.3882 0.48228 6.97635
upperneck 3.69317 -0.538906 2.41572
head 3.20786 -0.0483858 -0.470501
lclavicle -1.40251e-16 -7.06119e-15 0
lhumerus -59.2949 -46.7672 116.285
lradius 54.2111 0 0
lwrist 26.4285 0 0
lhand 39.624 30.3944 0
lfingers 7.12502 0 0
lthumb 62.1083 41.9622 0
rclavicle -1.40251e-16 -7.06119e-15 0
rhumerus -3.61833 -20.8314 -12.0965
rradius 54.2303 0 0
rwrist -23.4343 0 0
rhand -33.5561 -56.2146 0
rfingers 7.12502 0 0
rthumb -6.61118 -484.489 0
207
root 4.81 15.0326 -25.4752 7.33116 -1.4385 5.51707
lfemur 7.0939 -2.73271 0.961644
ltibia 6.17409 0 0
lfoot -36.3172 -11.5015 0
ltoes 47.6205 0 0
rfemur -32.045 -20.3004 -8.2243
rtibia 51.4091 0 0
rfoot -26.6718 18.4239 0
rtoes 60.3196 0 0
lowerback -2.73053 -1.49929 -0.564364
upperback -0.68154 -1.93261 -7.53145
thorax 0.58059 -0.979693 -7.60183
lowerneck -11.2294 0.521994 6.95196
upperneck 3.61102 -0.461208 2.36018
head 3.15066 -0.0165654 -0.479323
lclavicle -4.68276e-16 -2.99972e-15 0
lhumerus -59.4132 -46.6243 116.422
lradius 54.3655 0 0
lwrist 26.1894 0 0
lhand 39.4603 30.214 0
lfingers 7.12502 0 0
lthumb 61.9935 42.1018 0
rclavicle -4.68276e-16 -2.99972e-15 0
rhumerus -4.48134 -24.5982 -12.6862
rradius 56.6912 0 0
rwrist -23.7843 0 0
rhand -39.0342 -59.0393 0
rfingers 7.12502 0 0
rthumb -11.8963 -512.624 0
208
root 4.78699 15.0307 -25.4915 7.42954 -1.21835 5.41954
lfemur 6.68072 -3.36467 1.16971
ltibia 6.4215 0 0
lfoot -36.1605 -11.2259 0
ltoes 48.0148 0 0
rfemur -32.2019 -20.5171 -7.97611
rtibia 51.6055 0 0
rfoot -26.8419 18.4333 0
rtoes 60.3202 0 0
lowerback -2.41648 -1.51104 -0.632569
upperback -0.71411 -1.96464 -7.415
thorax 0.371634 -0.998972 -7.42482
lowerneck -11.0808 0.572264 6.88579
upperneck 3.51659 -0.36319 2.30149
head 3.09162 0.024278 -0.480558
lclavicle -7.42692e-16 1.47438e-15 0
lhumerus -59.4981 -46.4125 116.52
lradius 54.5478 0 0
lwrist 25.9699 0 0
lhand 39.1797 30.0097 0
lfingers 7.12502 0 0
lthumb 61.7739 42.2882 0
rclavicle -7.42692e-16 1.47438e-15 0
rhumerus -5.60546 -27.6827 -13.4374
rradius 60.0649 0 0
rwrist -24.1627 0 0
rhand -43.7799 -61.3224 0
rfingers 7.12502 0 0
rthumb -16.4992 -542.571 0
209
root 4.76491 15.0318 -25.5085 7.52733 -0.96798 5.27564
lfemur 6.15069 -3.83824 1.43696
ltibia 6.85159 0 0
lfoot -35.834 -11 0
ltoes 48.3138 0 0
rfemur -32.311 -20.6861 -7.68062
rtibia 51.7382 0 0
rfoot -27.0249 18.3821 0
rtoes 60.3032 0 0
lowerback -2.10583 -1.5492 -0.688135
upperback -0.73099 -2.03088 -7.26345
thorax 0.17907 -1.03487 -7.21904
lowerneck -10.9551 0.64086 6.79096
upperneck 3.41942 -0.237878 2.23451
head 3.03664 0.0780325 -0.477797
lclavicle -8.19192e-16 6.05512e-15 0
lhumerus -59.5562 -46.1526 116.599
lradius 54.7499 0 0
lwrist 25.8052 0 0
lhand 38.683 29.7455 0
lfingers 7.12502 0 0
lthumb 61.3568 42.5212 0
rclavicle -8.19192e-16 6.05512e-15 0
rhumerus -6.84307 -29.8593 -14.3535
rradius 63.8877 0 0
rwrist -24.3044 0 0
rhand -47.5968 -62.8788 0
rfingers 7.12502 0 0
rthumb -20.2163 -572.846 0
210
root 4.74451 15.0358 -25.5262 7.62002 -0.71605 5.06843
lfemur 5.49066 -4.01686 1.77123
ltibia 7.53555 0 0
lfoot -35.3239 -10.8138 0
ltoes 48.4156 0 0
rfemur -32.3847 -20.7972 -7.3217
rtibia 51.8004 0 0
rfoot -27.1968 18.2867 0
rtoes 60.2747 0 0
lowerback -1.81421 -1.61686 -0.720563
upperback -0.723932 -2.13419 -7.06905
thorax 0.020846 -1.08843 -6.98291
lowerneck -10.865 0.735548 6.68057
upperneck 3.32905 -0.0783003 2.15409
head 2.99159 0.148586 -0.474629
lclavicle -5.53469e-16 1.04365e-14 0
lhumerus -59.5943 -45.8654 116.681
lradius 54.9636 0 0
lwrist 25.7301 0 0
lhand 37.8709 29.3851 0
lfingers 7.12502 0 0
lthumb 60.6497 42.8007 0
rclavicle -5.53469e-16 1.04365e-14 0
rhumerus -8.04658 -30.9026 -15.4377
rradius 67.6962 0 0
rwrist -23.9443 0 0
rhand -50.2881 -63.5234 0
rfingers 7.12502 0 0
rthumb -22.844 -601.961 0
211
root 4.72652 15.0422 -25.545 7.70309 -0.491237 4.781
lfemur 4.68749 -3.76403 2.18034
ltibia 8.54457 0 0
lfoot -34.6162 -10.6571 0
ltoes 48.2181 0 0
rfemur -32.4355 -20.8402 -6.88321
rtibia 51.7854 0 0
rfoot -27.3336 18.1638 0
rtoes 60.2405 0 0
lowerback -1.55725 -1.71709 -0.719351
upperback -0.684689 -2.27746 -6.82404
thorax -0.0850889 -1.16073 -6.7149
lowerneck -10.8231 0.864097 6.56772
upperneck 3.25503 0.122515 2.05509
head 2.96236 0.239828 -0.474647
lclavicle 1.98785e-16 1.43125e-14 0
lhumerus -59.6189 -45.5717 116.787
lradius 55.1807 0 0
lwrist 25.7799 0 0
lhand 36.6442 28.8925 0
lfingers 7.12502 0 0
lthumb 59.5601 43.1265 0
rclavicle 1.98785e-16 1.43125e-14 0
rhumerus -9.06837 -30.5869 -16.6934
rradius 71.0267 0 0
rwrist -22.8175 0 0
rhand -51.6573 -63.0713 0
rfingers 7.12502 0 0
rthumb -24.1789 -628.433 0
212
root 4.71 15.0522 -25.5648 7.77319 -0.294555 4.39799
lfemur 3.72873 -3.08524 2.71906
ltibia 9.91958 0 0
lfoot -33.5933 -10.6379 0
ltoes 48.0967 0 0
rfemur -32.4532 -20.7814 -6.34571
rtibia 51.6859 0 0
rfoot -27.4428 17.9949 0
rtoes 60.1904 0 0
lowerback -1.34218 -1.88032 -0.682936
upperback -0.601098 -2.50098 -6.51211
thorax -0.12478 -1.27157 -6.39911
lowerneck -10.8322 1.05853 6.44517
upperneck 3.19782 0.408402 1.92506
head 2.95082 0.372914 -0.477976
lclavicle 1.60593e-15 1.82163e-14 0
lhumerus -59.6475 -45.2217 116.907
lradius 55.4211 0 0
lwrist 26.0751 0 0
lhand 34.7651 28.2306 0
lfingers 7.12502 0 0
lthumb 57.8724 43.5898 0
rclavicle 1.60593e-15 1.82163e-14 0
rhumerus -9.92373 -28.4173 -18.1034
rradius 74.202 0 0
rwrist -20.7239 0 0
rhand -51.8689 -61.2004 0
rfingers 7.12502 0 0
rthumb -24.3356 -654.46 0
213
root 4.69397 15.0662 -25.5855 7.83322 -0.100855 3.92932
lfemur 2.62192 -2.10367 3.39868
ltibia 11.6109 0 0
lfoot -32.2284 -10.8013 0
ltoes 48.2671 0 0
rfemur -32.4235 -20.6187 -5.71705
rtibia 51.5054 0 0
rfoot -27.548 17.7591 0
rtoes 60.1155 0 0
lowerback -1.15752 -2.11394 -0.620131
upperback -0.476435 -2.81563 -6.13471
thorax -0.109528 -1.42662 -6.03165
lowerneck -10.8818 1.32261 6.29884
upperneck 3.14909 0.787773 1.76443
head 2.95236 0.55144 -0.481468
lclavicle 3.59581e-15 2.25977e-14 0
lhumerus -59.6799 -44.7802 117.02
lradius 55.6988 0 0
lwrist 26.6248 0 0
lhand 32.2425 27.4194 0
lfingers 7.12502 0 0
lthumb 55.597 44.2211 0
rclavicle 3.59581e-15 2.25977e-14 0
rhumerus -10.7489 -24.4292 -19.6589
rradius 77.7417 0 0
rwrist -17.8325 0 0
rhand -51.1525 -57.9677 0
rfingers 7.12502 0 0
rthumb -23.5334 -682.097 0
214
root 4.67914 15.0834 -25.607 7.88803 0.100433 3.396
lfemur 1.38389 -0.859352 4.16183
ltibia 13.554 0 0
lfoot -30.6437 -11.0425 0
ltoes 48.3881 0 0
rfemur -32.3523 -20.3891 -5.02207
rtibia 51.2536 0 0
rfoot -27.65 17.4694 0
rtoes 60.0243 0 0
lowerback -0.990827 -2.3865 -0.535998
upperback -0.325612 -3.18016 -5.71076
thorax -0.0592727 -1.60571 -5.6289
lowerneck -10.9651 1.62173 6.13163
upperneck 3.10519 1.21447 1.58736
head 2.96314 0.752953 -0.483798
lclavicle 5.95197e-15 2.70255e-14 0
lhumerus -59.6965 -44.2902 117.129
lradius 55.9965 0 0
lwrist 27.2966 0 0
lhand 29.3474 26.5077 0
lfingers 7.12502 0 0
lthumb 52.9802 44.9293 0
rclavicle 5.95197e-15 2.70255e-14 0
rhumerus -11.578 -19.1929 -21.3761
rradius 81.4775 0 0
rwrist -14.4315 0 0
rhand -49.4091 -53.7572 0
rfingers 7.12502 0 0
rthumb -21.7252 -709.638 0
215
root 4.66621 15.1028 -25.6293 7.94247 0.319882 2.81901
lfemur 0.0314575 0.607721 4.95114
ltibia 15.6841 0 0
lfoot -28.9615 -11.2571 0
ltoes 48.1182 0 0
rfemur -32.2455 -20.1298 -4.28558
rtibia 50.9399 0 0
rfoot -27.7492 17.1386 0
rtoes 59.925 0 0
lowerback -0.829665 -2.66656 -0.435603
upperback -0.163543 -3.55331 -5.25914
thorax 0.0060482 -1.78868 -5.20728
lowerneck -11.0751 1.92128 5.9464
upperneck 3.06249 1.64234 1.40801
head 2.97935 0.955002 -0.483643
lclavicle 8.45794e-15 3.10684e-14 0
lhumerus -59.6777 -43.7945 117.234
lradius 56.297 0 0
lwrist 27.9583 0 0
lhand 26.3505 25.5446 0
lfingers 7.12502 0 0
lthumb 50.2687 45.6233 0
rclavicle 8.45794e-15 3.10684e-14 0
rhumerus -12.4447 -13.2784 -23.2711
rradius 85.2414 0 0
rwrist -10.8094 0 0
rhand -46.5397 -48.9524 0
rfingers 7.12502 0 0
rthumb -18.8644 -735.379 0
